<?xml version="1.0" encoding="UTF-8"?>
<svg id="a" data-name="Layer 1" xmlns="http://www.w3.org/2000/svg" width="192" height="192" viewBox="0 0 192 192">
    <style>
    .light-mode { fill: #191919; }
    .dark-mode { fill: #f8f8ff; }

    @media (prefers-color-scheme: dark) {
      .light-mode { display: none; }
    }

    @media (prefers-color-scheme: light) {
      .dark-mode { display: none; }
    }
  </style>

  <path class="light-mode" d="M160.328,155.239L122.092,12.538c-1.168-4.362-3.966-8.008-7.877-10.266-3.911-2.258-8.467-2.859-12.829-1.689l-57.76,15.477c-4.362,1.169-8.008,3.966-10.266,7.877-2.257,3.911-2.857,8.467-1.688,12.829l38.237,142.701c1.977,7.379,8.694,12.533,16.334,12.533,1.472,0,2.943-.196,4.372-.579l57.76-15.477c4.362-1.168,8.007-3.965,10.266-7.877,2.257-3.911,2.857-8.467,1.688-12.829ZM134.997,82.617l-79.462,21.292-18.384-68.611c-.777-2.899-.378-5.926,1.123-8.524,1.5-2.599,3.923-4.458,6.821-5.234l57.76-15.477c.96-.257,1.945-.388,2.927-.388,1.951,0,3.886.522,5.597,1.51,2.599,1.501,4.457,3.923,5.234,6.821l18.384,68.611ZM146.906,170.466l-57.76,15.476c-2.899.776-5.927.378-8.525-1.123-2.599-1.5-4.458-3.923-5.234-6.821l-18.384-68.611,79.462-21.292,18.384,68.611c1.603,5.983-1.961,12.155-7.943,13.759Z" fill="#191919"/>
  <circle class="light-mode" cx="85.079" cy="55.245" r="8.588" transform="translate(-13.712 32.204) rotate(-19.869)" fill="#191919"/>
  <circle class="light-mode" cx="106.462" cy="135.047" r="8.588" transform="translate(-60.736 94.839) rotate(-38.228)" fill="#191919"/>

  <path class="dark-mode" d="M160.328,155.239L122.092,12.538c-1.168-4.362-3.966-8.008-7.877-10.266-3.911-2.258-8.467-2.859-12.829-1.689l-57.76,15.477c-4.362,1.169-8.008,3.966-10.266,7.877-2.257,3.911-2.857,8.467-1.688,12.829l38.237,142.701c1.977,7.379,8.694,12.533,16.334,12.533,1.472,0,2.943-.196,4.372-.579l57.76-15.477c4.362-1.168,8.007-3.965,10.266-7.877,2.257-3.911,2.857-8.467,1.688-12.829ZM134.997,82.617l-79.462,21.292-18.384-68.611c-.777-2.899-.378-5.926,1.123-8.524,1.5-2.599,3.923-4.458,6.821-5.234l57.76-15.477c.96-.257,1.945-.388,2.927-.388,1.951,0,3.886.522,5.597,1.51,2.599,1.501,4.457,3.923,5.234,6.821l18.384,68.611ZM146.906,170.466l-57.76,15.476c-2.899.776-5.927.378-8.525-1.123-2.599-1.5-4.458-3.923-5.234-6.821l-18.384-68.611,79.462-21.292,18.384,68.611c1.603,5.983-1.961,12.155-7.943,13.759Z" fill="#f8f8ff"/>
  <circle class="dark-mode" cx="85.079" cy="55.245" r="8.588" transform="translate(-13.712 32.204) rotate(-19.869)" fill="#f8f8ff"/>
  <circle class="dark-mode" cx="106.462" cy="135.047" r="8.588" transform="translate(-60.736 94.839) rotate(-38.228)" fill="#f8f8ff"/>
</svg>